<svg xmlns="http://www.w3.org/2000/svg" id="Layer_1" enable-background="new 0 0 64 64" viewBox="0 0 64 64"><path fill="#06afff" d="M59.5,6.5c1.657,0,3,1.343,3,3V50.5c0,1.657-1.343,3-3,3H4.5c-1.657,0-3-1.343-3-3V9.5c0-1.657,1.343-3,3-3
				H59.5z"/><path fill="#0688ff" d="M62.5,44.88v5.62c0,1.66-1.34,3-3,3h-55c-1.66,0-3-1.34-3-3v-41c0-1.66,1.34-3,3-3h6.63
				c0.37,1.7,0.83,3.37,1.37,5c0.45,1.36,0.97,2.69,1.54,4c3.21,7.42,8.22,13.88,14.46,18.85c8,6.38,18.05,10.3,29,10.62
				C58,44.99,58.5,45,59,45C60.18,45,61.34,44.96,62.5,44.88z"/><rect width="51" height="37" x="6.5" y="11.5" fill="#fcda35"/><path fill="#faca00" d="M57.5,44.97v3.53h-51v-37h6c0.45,1.36,0.97,2.69,1.54,4c3.21,7.42,8.22,13.88,14.46,18.85
				C36.5,40.73,46.55,44.65,57.5,44.97z"/><rect width="2" height="5" x="5.5" y="19.5" fill="#efefef"/><rect width="2" height="5" x="5.5" y="35.5" fill="#efefef"/><path fill="#ff56cb" d="M49.5,28.5v11c0,1.1-0.9,2-2,2c-1.1,0-2-0.9-2-2v-11c0-1.1,0.9-2,2-2c0.55,0,1.05,0.22,1.41,0.59
				C49.28,27.45,49.5,27.95,49.5,28.5z"/><path fill="#d949ac" d="M47.5,26.5v15c-1.1,0-2-0.9-2-2v-11C45.5,27.4,46.4,26.5,47.5,26.5z"/><path fill="#06afff" d="M53.5,26.5c0,2.61-1.67,4.83-4,5.66V28.5c0-0.55-0.22-1.05-0.59-1.41c-0.36-0.37-0.86-0.59-1.41-0.59
				c-1.1,0-2,0.9-2,2v3.66c-2.33-0.83-4-3.05-4-5.66c0-3.31,2.69-6,6-6S53.5,23.19,53.5,26.5z"/><path fill="#0688ff" d="M10.5 53.5v2.498c0 .829.672 1.502 1.502 1.502h2.997c.829 0 1.502-.672 1.502-1.502V53.5H10.5zM47.5 53.5v2.498c0 .829.672 1.502 1.502 1.502h2.997c.829 0 1.502-.672 1.502-1.502V53.5H47.5z"/><rect width="17" height="29" x="11.5" y="15.5" fill="#fff"/><path fill="#efefef" d="M28.5,34.35V44.5h-17v-29h2.54C17.25,22.92,22.26,29.38,28.5,34.35z"/><path fill="#2828b8" d="M59.5,54H4.5C2.57,54,1,52.43,1,50.5V9.5C1,7.57,2.57,6,4.5,6h37C41.776,6,42,6.224,42,6.5S41.776,7,41.5,7
					h-37C3.122,7,2,8.122,2,9.5V50.5C2,51.878,3.122,53,4.5,53H59.5c1.379,0,2.5-1.122,2.5-2.5V9.5C62,8.122,60.878,7,59.5,7h-5
					C54.224,7,54,6.776,54,6.5S54.224,6,54.5,6h5C61.43,6,63,7.57,63,9.5V50.5C63,52.43,61.43,54,59.5,54z"/><path fill="#2828b8" d="M6.5,36C6.224,36,6,35.776,6,35.5v-11C6,24.224,6.224,24,6.5,24S7,24.224,7,24.5v11
					C7,35.776,6.776,36,6.5,36z"/><path fill="#2828b8" d="M57.5,49h-51C6.224,49,6,48.776,6,48.5v-8C6,40.224,6.224,40,6.5,40S7,40.224,7,40.5V48h50V12H7v7.5
					C7,19.776,6.776,20,6.5,20S6,19.776,6,19.5v-8C6,11.224,6.224,11,6.5,11h51c0.276,0,0.5,0.224,0.5,0.5v37
					C58,48.776,57.776,49,57.5,49z"/><path fill="#2828b8" d="M28.5,45h-17c-0.276,0-0.5-0.224-0.5-0.5v-29c0-0.276,0.224-0.5,0.5-0.5h17c0.276,0,0.5,0.224,0.5,0.5v29
					C29,44.776,28.776,45,28.5,45z M12,44h16V16H12V44z"/><path fill="#2828b8" d="M25.5 42h-11c-.276 0-.5-.224-.5-.5s.224-.5.5-.5h11c.276 0 .5.224.5.5S25.776 42 25.5 42zM25.5 39h-11c-.276 0-.5-.224-.5-.5s.224-.5.5-.5h11c.276 0 .5.224.5.5S25.776 39 25.5 39zM25.5 36h-11c-.276 0-.5-.224-.5-.5s.224-.5.5-.5h11c.276 0 .5.224.5.5S25.776 36 25.5 36zM25.5 29h-11c-.276 0-.5-.224-.5-.5v-10c0-.276.224-.5.5-.5h11c.276 0 .5.224.5.5v10C26 28.776 25.776 29 25.5 29zM15 28h10v-9H15V28zM7.5 25h-2C5.224 25 5 24.776 5 24.5v-5C5 19.224 5.224 19 5.5 19h2C7.776 19 8 19.224 8 19.5v5C8 24.776 7.776 25 7.5 25zM6 24h1v-4H6V24zM7.5 41h-2C5.224 41 5 40.776 5 40.5v-5C5 35.224 5.224 35 5.5 35h2C7.776 35 8 35.224 8 35.5v5C8 40.776 7.776 41 7.5 41zM6 40h1v-4H6V40zM47.5 42c-1.378 0-2.5-1.122-2.5-2.5v-11c0-1.378 1.122-2.5 2.5-2.5s2.5 1.122 2.5 2.5v11C50 40.878 48.878 42 47.5 42zM47.5 27c-.827 0-1.5.673-1.5 1.5v11c0 .827.673 1.5 1.5 1.5s1.5-.673 1.5-1.5v-11C49 27.673 48.327 27 47.5 27z"/><path fill="#2828b8" d="M45.5 32.659c-.055 0-.111-.009-.167-.029C42.741 31.714 41 29.25 41 26.5c0-3.584 2.916-6.5 6.5-6.5s6.5 2.916 6.5 6.5c0 2.75-1.741 5.213-4.333 6.129-.261.093-.546-.044-.638-.305-.092-.26.044-.546.305-.638C51.527 30.912 53 28.827 53 26.5c0-3.033-2.467-5.5-5.5-5.5S42 23.467 42 26.5c0 2.328 1.474 4.412 3.667 5.188.26.092.397.377.305.638C45.899 32.531 45.706 32.659 45.5 32.659zM14.999 58h-2.997C10.898 58 10 57.102 10 55.998V53.5c0-.276.224-.5.5-.5h6c.276 0 .5.224.5.5v2.498C17 57.102 16.102 58 14.999 58zM11 54v1.998C11 56.55 11.449 57 12.001 57h2.997C15.551 57 16 56.55 16 55.998V54H11zM51.999 58h-2.997C47.898 58 47 57.102 47 55.998V53.5c0-.276.224-.5.5-.5h6c.276 0 .5.224.5.5v2.498C54 57.102 53.102 58 51.999 58zM48 54v1.998C48 56.55 48.449 57 49.001 57h2.997C52.551 57 53 56.55 53 55.998V54H48zM49.5 7h-5C44.224 7 44 6.776 44 6.5S44.224 6 44.5 6h5C49.776 6 50 6.224 50 6.5S49.776 7 49.5 7z"/></svg>